<?xml version="1.0" encoding="UTF-8" standalone="no"?>
<!DOCTYPE svg PUBLIC "-//W3C//DTD SVG 1.1//EN" "http://www.w3.org/Graphics/SVG/1.1/DTD/svg11.dtd">
<svg width="100%" height="100%" viewBox="0 0 778 871" version="1.1" xmlns="http://www.w3.org/2000/svg" xmlns:xlink="http://www.w3.org/1999/xlink" xml:space="preserve" xmlns:serif="http://www.serif.com/" style="fill-rule:evenodd;clip-rule:evenodd;stroke-linecap:round;stroke-linejoin:round;stroke-miterlimit:1.5;">
  <g id="mint">
    <path d="M659.563,736.988l30.176,-9.415c3.763,-1.175 3.836,-5.66 0.189,-11.806c-3.646,-6.146 -10.472,-13.047 -17.969,-18.166c-52.18,-35.625 -150.497,-102.751 -219.034,-149.545c-9.518,-6.498 -18.067,-8.746 -20.935,-5.504c-2.868,3.242 0.643,11.185 8.598,19.451l101.485,105.459l-30.243,8.701c-3.835,1.103 -3.996,5.529 -0.422,11.649c3.574,6.121 10.354,13.034 17.848,18.197c52.16,35.938 150.439,103.653 218.949,150.857c9.515,6.555 18.13,8.9 21.097,5.743c2.968,-3.157 -0.434,-11.049 -8.33,-19.326l-101.409,-106.295Z" style="fill:none;stroke:#9dffe4;stroke-width:8.33px;"/>
    <path d="M267.636,635.261l21.531,-6.719c2.686,-0.838 2.737,-4.038 0.135,-8.423c-2.601,-4.386 -7.472,-9.31 -12.821,-12.962c-37.232,-25.42 -107.385,-73.317 -156.289,-106.706c-6.792,-4.637 -12.891,-6.241 -14.938,-3.927c-2.046,2.313 0.459,7.98 6.135,13.879l72.413,75.248l-21.579,6.209c-2.737,0.787 -2.851,3.945 -0.301,8.312c2.55,4.367 7.388,9.3 12.735,12.984c37.218,25.643 107.343,73.96 156.228,107.642c6.789,4.677 12.936,6.351 15.054,4.098c2.117,-2.253 -0.31,-7.884 -5.945,-13.79l-72.358,-75.845Z" style="fill:none;stroke:#9dffe4;stroke-width:8.33px;"/>
    <path d="M499.897,213.422l14.86,-4.637c1.854,-0.578 1.889,-2.787 0.094,-5.813c-1.796,-3.027 -5.157,-6.426 -8.849,-8.946c-25.696,-17.544 -74.113,-50.6 -107.864,-73.644c-4.687,-3.2 -8.897,-4.307 -10.309,-2.711c-1.413,1.597 0.316,5.508 4.234,9.579l49.976,51.934l-14.893,4.284c-1.889,0.544 -1.968,2.723 -0.208,5.737c1.76,3.014 5.099,6.418 8.79,8.961c25.685,17.698 74.083,51.044 107.821,74.29c4.686,3.228 8.928,4.383 10.39,2.828c1.461,-1.555 -0.214,-5.441 -4.103,-9.517l-49.939,-52.345Z" style="fill:none;stroke:#9dffe4;stroke-width:8.33px;"/>
    <path d="M273.781,235.512l34.763,-10.847c4.336,-1.353 4.419,-6.52 0.219,-13.6c-4.201,-7.081 -12.065,-15.031 -20.702,-20.928c-60.112,-41.041 -173.375,-118.372 -252.331,-172.279c-10.965,-7.486 -20.814,-10.076 -24.118,-6.341c-3.303,3.735 0.741,12.885 9.905,22.408l116.913,121.491l-34.841,10.023c-4.418,1.272 -4.602,6.37 -0.485,13.421c4.117,7.051 11.928,15.014 20.561,20.963c60.089,41.401 173.308,119.41 252.234,173.79c10.96,7.552 20.885,10.254 24.304,6.617c3.419,-3.638 -0.501,-12.729 -9.597,-22.265l-116.825,-122.453Z" style="fill:none;stroke:#9dffe4;stroke-width:8.33px;"/>
  </g>
</svg>
