<svg width="1410px" height="286px" viewBox="0 0 1410 286" version="1.1" xmlns="http://www.w3.org/2000/svg" xmlns:xlink="http://www.w3.org/1999/xlink">
    <title>Main Logo on Blackberry Copy</title>
    <g id="Main-Logo-on-Blackberry-Copy" stroke="none" stroke-width="1" fill="none" fill-rule="evenodd">
        <g id="SC-master-white" transform="translate(17.500000, 16.000000)" fill="#FFFFFF" fill-rule="nonzero">
            <path d="M82.6042105,100.558596 L111.976842,110.282105 L147.569825,19.0203509 C149.359491,13.3933799 147.392643,7.2501322 142.667654,3.70891985 C137.942665,0.167707504 131.494316,0.00406314064 126.595789,3.30105263 L7.01684211,100.154386 C2.61634798,103.109056 0.283148719,108.312229 1.00399142,113.563401 C1.72483413,118.814573 5.37381398,123.196556 10.4077193,124.85614 L55.32,139.677193 L65.1333333,109.563509 C66.2513501,106.049382 68.7220327,103.124728 71.9999303,101.43522 C75.2778279,99.7457126 79.093373,99.430293 82.6042105,100.558596 L82.6042105,100.558596 Z" id="Path" style="mix-blend-mode: lighten;"></path>
            <path d="M155.047719,124.519298 L111.976842,110.282105 L100.456842,139.81193 C99.3355628,143.348163 96.8451534,146.288264 93.5415254,147.975941 C90.2378974,149.663618 86.3960933,149.958364 82.8736842,148.794386 L55.1403509,139.632281 L55.1403509,139.632281 L53.9950877,143.337544 L23.8364912,235.789474 C22.0355453,241.42341 24.0033456,247.57967 28.7382076,251.124487 C33.4730696,254.669303 39.9343375,254.823575 44.8329825,251.508772 L158.438596,149.198596 C162.825783,146.240475 165.149083,141.045008 164.428837,135.802953 C163.708591,130.560898 160.070148,126.184561 155.047719,124.519298 L155.047719,124.519298 Z" id="Path" style="mix-blend-mode: lighten;"></path>
            <path d="M946.649123,153.173333 C946.649123,140.261053 956.058246,133.636491 972.630877,133.636491 C983.418082,133.616324 994.102714,135.730355 1004.06947,139.856842 L1004.06947,107.789474 C992.730236,104.317014 980.962198,102.442593 969.105263,102.220351 C932.995789,102.220351 907.867368,122.094035 907.867368,153.173333 C907.867368,184.252632 932.995789,204.081404 969.105263,204.081404 C980.333333,204.081404 1010.13263,195.682807 1012.37825,163.862456 C1001.15018,169.633684 985.677895,172.50807 972.585965,172.50807 C955.990877,172.50807 946.649123,166.175439 946.649123,153.173333 Z" id="Path"></path>
            <path d="M1262.87649,200.623158 L1227.2386,146.728421 C1234.73895,130.582456 1248.68421,113.178947 1261.37193,104.196491 C1219.69333,94.4954386 1198.49474,122.475789 1192.81333,134.152982 C1191.0582,137.695164 1189.4989,141.331046 1188.14246,145.044211 L1187.91789,144.460351 L1188.07509,144.460351 L1188.07509,46.237193 C1179.29443,60.6859199 1165.32472,71.2334911 1149.02386,75.7221053 L1149.02386,200.66807 C1149.02386,200.66807 1169.93053,200.66807 1190.47789,200.66807 L1188.8386,191.169123 L1188.8386,152.544561 L1194.90175,168.26386 L1216.52702,200.712982 L1262.87649,200.623158 Z" id="Path"></path>
            <path d="M739.491228,178.90807 L738.368421,186.902456 L738.368421,186.902456 L736.616842,200.847719 L775.353684,200.847719 L775.353684,105.049825 L736.661754,105.049825 L736.661754,164.13193 C729.498246,168.892632 719.729825,172.10386 713.981053,172.10386 C706.480702,172.10386 700.192982,168.892632 700.192982,158.360702 L700.192982,105.049825 L661.45614,105.049825 L661.45614,164.13193 C661.45614,188.833684 673.492632,203.856842 697.565614,203.856842 C707.221754,203.856842 718.921404,200.533333 730.823158,192.628772" id="Path"></path>
            <path d="M616.925614,172.687719 C606.101754,172.687719 599.634386,168.443509 599.634386,156.721404 L599.634386,142.798596 L584.745965,138.127719 L636.125614,138.127719 L636.125614,106.689123 L599.634386,106.689123 L599.634386,76.7550877 C591.842105,90.0491228 571.429474,105.54386 560.897544,105.54386 L560.897544,164.468772 C560.897544,190.270877 576.953684,204.014035 602.957895,204.014035 C617.082807,204.014035 639.336842,194.672281 645.175439,164.625965 C636.547192,169.553114 626.854741,172.319084 616.925614,172.687719 L616.925614,172.687719 Z" id="Path"></path>
            <path d="M392.274386,172.687719 C381.450526,172.687719 375.005614,168.443509 375.005614,156.721404 L375.005614,142.798596 L360.094737,138.127719 L411.474386,138.127719 L411.474386,106.689123 L375.005614,106.689123 L375.005614,76.7550877 C367.280702,90.0491228 350.191579,102.669474 336.268772,105.54386 L336.268772,164.468772 C336.268772,190.270877 352.324912,204.014035 378.306667,204.014035 C392.454035,204.014035 414.685614,194.672281 420.546667,164.625965 C411.908969,169.549991 402.210049,172.315609 392.274386,172.687719 Z" id="Path"></path>
            <path d="M1296.96491,164.783158 L1374.25895,164.783158 C1378.25614,122.318596 1361.09965,102.220351 1322.60982,102.220351 C1289.77895,102.220351 1266.22246,122.228772 1266.22246,153.487719 C1266.22246,184.746667 1295.14596,203.969123 1326.11298,203.969123 C1337.34105,203.969123 1364.28842,195.750175 1373.27088,169.566316 C1362.04281,173.653333 1344.66175,175.719298 1331.48,175.719298 C1323.05895,175.719298 1316.88351,174.08 1312.50456,171.115789 M1302.33193,143.898947 C1303.27509,134.4 1311.31439,127.595789 1322.92421,127.595789 C1336.91439,127.595789 1344.9986,135.769825 1343.62877,143.898947 L1302.33193,143.898947 Z" id="Shape"></path>
            <path d="M504.981754,183.691228 L503.971228,190.854737 L503.971228,190.854737 L502.73614,200.690526 L541.472982,200.690526 L541.472982,142.124912 C541.472982,118.007018 526.472281,102.220351 490.183158,102.220351 C477.967018,102.220351 445.787368,108.10386 437.478596,145.515789 C453.826667,133.187368 470.870877,128.269474 483.266667,128.269474 C493.551579,128.269474 502.73614,134.175439 502.73614,142.439298 L502.73614,143.719298 C451.805614,143.719298 432.403509,160.785965 432.403509,179.312281 C432.403509,195.592982 445.315789,204.014035 461.888421,204.014035 C474.120044,204.006485 486.152611,200.917251 496.875088,195.031579 M502.713684,172.440702 C494.607018,177.358596 485.489825,180.704561 478.191579,180.704561 C471.90386,180.704561 468.872281,178.952982 468.872281,174.394386 C468.872281,167.500351 483.670877,163.166316 502.713684,163.166316 L502.713684,172.440702 Z" id="Shape"></path>
            <path d="M1090.79509,183.781053 L1089.76211,190.922105 L1089.76211,190.922105 L1088.54947,200.780351 L1127.28632,200.780351 L1127.28632,142.192281 C1127.28632,118.096842 1112.28561,102.287719 1075.99649,102.287719 C1063.78035,102.287719 1031.6007,108.193684 1023.29193,145.605614 C1039.64,133.254737 1056.68421,128.359298 1069.08,128.359298 C1079.36491,128.359298 1088.54947,134.265263 1088.54947,142.506667 L1088.54947,143.719298 C1037.59649,143.719298 1018.2393,160.875789 1018.2393,179.379649 C1018.2393,195.682807 1031.15158,204.081404 1047.72421,204.081404 C1059.95449,204.063265 1071.98448,200.974693 1082.71088,195.098947 M1088.54947,172.485614 C1080.44281,177.403509 1071.32561,180.77193 1064.02737,180.77193 C1057.73965,180.77193 1054.70807,178.997895 1054.70807,174.461754 C1054.70807,167.545263 1069.50667,163.233684 1088.54947,163.233684 L1088.54947,172.485614 Z" id="Shape"></path>
            <path d="M845.978246,131.345965 C837.557193,130.717193 834.929825,134.197895 835.42386,137.476491 C835.783158,139.722105 837.669474,142.282105 847.909474,143.045614 C869.871579,144.707368 896.055439,151.578947 896.055439,171.744561 C896.055439,192.763509 874.452632,205.069474 844.249123,203.969123 C777.037895,201.521404 795.676491,150.074386 795.676491,150.074386 C795.676491,150.074386 811.732632,170.644211 847.325614,170.644211 C856.712281,170.644211 856.936842,166.647018 856.712281,164.311579 C856.218246,159.281404 844.900351,159.348772 834.570526,157.574737 C828.181388,156.478077 821.931361,154.6859 815.93193,152.230175 C804.232281,147.357193 798.079298,139.834386 799.29193,128 C800.684211,114.526316 808.072281,102.287719 846.786667,102.287719 C859.653445,102.590605 872.337951,105.397519 884.131228,110.551579 L884.131228,139.22807 C867.738246,132.693333 845.978246,131.345965 845.978246,131.345965 Z" id="Path"></path>
            <path d="M272.830175,131.345965 C264.409123,130.717193 261.781754,134.197895 262.298246,137.476491 C262.635088,139.722105 264.54386,142.282105 274.78386,143.045614 C296.723509,144.707368 322.929825,151.578947 322.929825,171.744561 C322.929825,192.763509 301.304561,205.069474 271.123509,203.969123 C203.912281,201.521404 222.550877,150.074386 222.550877,150.074386 C222.550877,150.074386 238.607018,170.644211 274.2,170.644211 C283.564211,170.644211 283.788772,166.647018 283.564211,164.311579 C283.092632,159.281404 271.774737,159.348772 261.422456,157.574737 C255.041237,156.475263 248.798955,154.683148 242.806316,152.230175 C231.106667,147.357193 224.841404,139.834386 226.166316,128 C227.558596,114.526316 234.81193,102.759298 273.50386,102.759298 C286.375595,103.043169 299.086251,105.684245 311.005614,110.551579 L311.005614,139.22807 C294.612632,132.693333 272.830175,131.345965 272.830175,131.345965 Z" id="Path"></path>
        </g>
    </g>
</svg>
